<svg xmlns="http://www.w3.org/2000/svg" version="1.1" xmlns:xlink="http://www.w3.org/1999/xlink" width="512" height="512" x="0" y="0" viewBox="0 0 57.14 73.23" style="enable-background:new 0 0 512 512" xml:space="preserve" class=""><g><path d="M17.2 5a2.5 2.5 0 0 0 0-5A8.19 8.19 0 0 0 9 8.19V25.25c0 5.5-7.49 9.07-7.56 9.1a2.5 2.5 0 0 0 0 4.54C1.52 38.92 9 42.49 9 48v17a8.19 8.19 0 0 0 8.19 8.19 2.5 2.5 0 0 0 0-5A3.19 3.19 0 0 1 14 65.17s0-.08 0-.12V47.82c-.08-5.22-3.77-9-6.75-11.19 3-2.2 6.66-6 6.75-11.19V8.07A3.19 3.19 0 0 1 17.2 5zM55.7 34.35c-.08 0-7.57-3.6-7.57-9.1V8.18A8.19 8.19 0 0 0 39.94 0a2.5 2.5 0 0 0 0 5 3.19 3.19 0 0 1 3.18 3.06s0 .08 0 .12v17.25c.08 5.22 3.77 9 6.75 11.19-3 2.2-6.66 6-6.75 11.19V65.12a3.19 3.19 0 0 1-3.18 3.06 2.5 2.5 0 0 0 0 5A8.19 8.19 0 0 0 48.13 65V47.98c0-5.5 7.49-9.07 7.56-9.1a2.5 2.5 0 0 0 0-4.54z" fill="#f6ff00" opacity="1" data-original="#000000" class=""></path></g></svg>